<?xml version="1.0" standalone="no"?>
<!DOCTYPE svg PUBLIC "-//W3C//DTD SVG 20010904//EN"
 "http://www.w3.org/TR/2001/REC-SVG-20010904/DTD/svg10.dtd">
<svg version="1.0" xmlns="http://www.w3.org/2000/svg"
 width="500.000000pt" height="500.000000pt" viewBox="0 0 500.000000 500.000000"
 preserveAspectRatio="xMidYMid meet">
<metadata>
Created by potrace 1.14, written by Peter Selinger 2001-2017
</metadata>
<g transform="translate(0.000000,500.000000) scale(0.100000,-0.100000)"
fill="#000000" stroke="none">
<path d="M455 4935 c-173 -38 -322 -186 -370 -366 -13 -46 -15 -355 -15 -2046
0 -1421 3 -2007 11 -2045 36 -173 164 -314 342 -374 l70 -24 2021 3 2021 2 58
22 c161 61 279 190 322 354 22 81 22 4027 0 4108 -45 170 -165 299 -332 356
l-68 24 -2000 0 c-1624 0 -2011 -3 -2060 -14z"/>
</g>
</svg>
